<?xml version="1.0" encoding="utf-8"?>
<!-- Generated by IcoMoon.io -->
<!DOCTYPE svg PUBLIC "-//W3C//DTD SVG 1.1//EN" "http://www.w3.org/Graphics/SVG/1.1/DTD/svg11.dtd">
<svg version="1.1" xmlns="http://www.w3.org/2000/svg" xmlns:xlink="http://www.w3.org/1999/xlink" width="60" height="56" viewBox="0 0 60 56">
<g id="icomoon-ignore">
</g>
<path d="M0 44v-28q0-1.656 1.172-2.828t2.828-1.172h52q1.656 0 2.828 1.172t1.172 2.828v28q0 1.656-1.172 2.828t-2.828 1.172h-52q-1.656 0-2.828-1.172t-1.172-2.828zM4 44h52v-28h-52v28zM8 39.5v-3q0-0.5 0.5-0.5h3q0.5 0 0.5 0.5v3q0 0.5-0.5 0.5h-3q-0.5 0-0.5-0.5zM8 31.5v-3q0-0.5 0.5-0.5h7q0.5 0 0.5 0.5v3q0 0.5-0.5 0.5h-7q-0.5 0-0.5-0.5zM8 23.5v-3q0-0.5 0.5-0.5h3q0.5 0 0.5 0.5v3q0 0.5-0.5 0.5h-3q-0.5 0-0.5-0.5zM16 39.5v-3q0-0.5 0.5-0.5h27q0.5 0 0.5 0.5v3q0 0.5-0.5 0.5h-27q-0.5 0-0.5-0.5zM16 23.5v-3q0-0.5 0.5-0.5h3q0.5 0 0.5 0.5v3q0 0.5-0.5 0.5h-3q-0.5 0-0.5-0.5zM20 31.5v-3q0-0.5 0.5-0.5h3q0.5 0 0.5 0.5v3q0 0.5-0.5 0.5h-3q-0.5 0-0.5-0.5zM24 23.5v-3q0-0.5 0.5-0.5h3q0.5 0 0.5 0.5v3q0 0.5-0.5 0.5h-3q-0.5 0-0.5-0.5zM28 31.5v-3q0-0.5 0.5-0.5h3q0.5 0 0.5 0.5v3q0 0.5-0.5 0.5h-3q-0.5 0-0.5-0.5zM32 23.5v-3q0-0.5 0.5-0.5h3q0.5 0 0.5 0.5v3q0 0.5-0.5 0.5h-3q-0.5 0-0.5-0.5zM36 31.5v-3q0-0.5 0.5-0.5h3q0.5 0 0.5 0.5v3q0 0.5-0.5 0.5h-3q-0.5 0-0.5-0.5zM40 23.5v-3q0-0.5 0.5-0.5h3q0.5 0 0.5 0.5v3q0 0.5-0.5 0.5h-3q-0.5 0-0.5-0.5zM44 31.5v-3q0-0.5 0.5-0.5h3.5v-7.5q0-0.5 0.5-0.5h3q0.5 0 0.5 0.5v11q0 0.5-0.5 0.5h-7q-0.5 0-0.5-0.5zM48 39.5v-3q0-0.5 0.5-0.5h3q0.5 0 0.5 0.5v3q0 0.5-0.5 0.5h-3q-0.5 0-0.5-0.5z" fill="#ffffff"></path>
</svg>
